<?xml version="1.0" encoding="utf-8"?>
<!-- Generator: Adobe Illustrator 24.0.0, SVG Export Plug-In . SVG Version: 6.00 Build 0)  -->
<svg version="1.1" id="Camada_1" xmlns="http://www.w3.org/2000/svg" xmlns:xlink="http://www.w3.org/1999/xlink" x="0px" y="0px"
	 viewBox="0 0 512 640" style="enable-background:new 0 0 512 640;" xml:space="preserve">
<g>
	<g>
		<g>
			<g>
				<g>
					<path d="M315,500c-9.3,0-19.4-1-30.4-3.4C235.3,486,180.5,450.9,122,392.3C62.4,332.7,26.6,278.6,15.6,231.4
						c-9.7-41.9-0.1-77.7,28.5-106.4c1.6-1.6,4.1-1.6,5.7,0c1.6,1.6,1.6,4.1,0,5.7c-26.6,26.6-35.5,59.9-26.4,98.9
						c10.6,45.7,45.7,98.6,104.2,157.1c57.5,57.5,110.9,91.9,158.7,102.2c49.5,10.7,80.2-7.4,97.2-24.4c1.6-1.6,4.1-1.6,5.7,0
						s1.6,4.1,0,5.7C374.6,484.7,350.8,500,315,500z"/>
				</g>
				<g>
					<path d="M262.4,381.7c-6.1,0-12.8-1.1-19.8-3.2c-20.2-6.2-42.4-21-64.1-42.7s-36.5-43.9-42.7-64.1c-6.1-19.8-3.5-36.8,7.4-47.6
						c1.6-1.6,4.1-1.6,5.7,0c1.6,1.6,1.6,4.1,0,5.7c-8.7,8.7-10.6,22.7-5.4,39.6c5.8,19,19.9,40,40.7,60.8
						c40,40,81.3,54.5,100.4,35.4c1.6-1.6,4.1-1.6,5.7,0s1.6,4.1,0,5.7C283.2,378.1,273.7,381.7,262.4,381.7z"/>
				</g>
				<g>
					<path d="M386.2,471.1c-1.1,0-2.1-0.4-2.8-1.2l-99-99c-0.8-0.8-1.2-1.8-1.2-2.8s0.4-2.1,1.2-2.8l35-35c2.7-2.7,6.4-4.2,10.3-4.2
						s7.5,1.5,10.3,4.2l84.1,84.1c5.7,5.7,5.7,14.9,0,20.5l-35,35C388.3,470.7,387.3,471.1,386.2,471.1z M292.9,368.1l93.3,93.3
						l32.2-32.2c2.5-2.5,2.5-6.7,0-9.2l-84.1-84.1c-1.2-1.2-2.9-1.9-4.6-1.9s-3.4,0.7-4.6,1.9l0,0L292.9,368.1z"/>
				</g>
				<g>
					<path d="M145.8,230.7c-1,0-2-0.4-2.8-1.2l-98.8-98.8c-1.6-1.6-1.6-4.1,0-5.7l35-35l0,0c2.7-2.7,6.4-4.2,10.3-4.2
						S97,87.3,99.8,90l84,84c2.7,2.7,4.2,6.4,4.2,10.3c0,3.9-1.5,7.5-4.2,10.3l-35,35C147.9,230.3,146.8,230.7,145.8,230.7z
						 M52.7,127.8l93.2,93.2l32.2-32.2c1.2-1.2,1.9-2.9,1.9-4.6s-0.7-3.4-1.9-4.6l-84-84c-2.5-2.5-6.7-2.5-9.2,0L52.7,127.8z"/>
				</g>
			</g>
			<g>
				<path d="M286,230c-0.5,0-1-0.1-1.5-0.3c-1.5-0.6-2.5-2.1-2.5-3.7v-46.2c-16.9-2-30-16.4-30-33.8V46c0-18.7,15.3-34,34-34h180
					c18.7,0,34,15.3,34,34v100c0,18.7-15.3,34-34,34H337.7l-48.8,48.8C288.1,229.6,287,230,286,230z M286,20c-14.3,0-26,11.7-26,26
					v100c0,14.3,11.7,26,26,26c2.2,0,4,1.8,4,4v40.3l43.2-43.2c0.8-0.8,1.8-1.2,2.8-1.2h130c14.3,0,26-11.7,26-26V46
					c0-14.3-11.7-26-26-26H286z"/>
			</g>
			<g>
				<path d="M376,120c-13.2,0-24-10.8-24-24s10.8-24,24-24s24,10.8,24,24S389.2,120,376,120z M376,80c-8.8,0-16,7.2-16,16
					s7.2,16,16,16s16-7.2,16-16S384.8,80,376,80z"/>
			</g>
			<g>
				<path d="M446,120c-13.2,0-24-10.8-24-24s10.8-24,24-24s24,10.8,24,24S459.2,120,446,120z M446,80c-8.8,0-16,7.2-16,16
					s7.2,16,16,16s16-7.2,16-16S454.8,80,446,80z"/>
			</g>
			<g>
				<path d="M306,120c-13.2,0-24-10.8-24-24s10.8-24,24-24s24,10.8,24,24S319.2,120,306,120z M306,80c-8.8,0-16,7.2-16,16
					s7.2,16,16,16s16-7.2,16-16S314.8,80,306,80z"/>
			</g>
		</g>
	</g>
</g>
</svg>
